<?xml version="1.0" ?><svg id="Layer_1" style="enable-background:new 0 0 256 256;" version="1.1" viewBox="0 0 256 256" xml:space="preserve" xmlns="http://www.w3.org/2000/svg" xmlns:xlink="http://www.w3.org/1999/xlink"><g><path d="M112.8,120.9C112.8,120.9,112.8,120.9,112.8,120.9c-5.4-3.5-12.6-2.3-16.5,2.8l-20,26.1c-5.8,6.8-11.3,10.6-15.7,10.8   c-2.5,0.1-4.8-0.8-7-2.9c-3.3-3.1-5.2-7.6-5.2-12.4v-44.2c0-2.1-1.4-4-3.4-4.7c-2-0.6-4.3,0.2-5.5,1.9l-33,48.6   c-2.6,3.9-3.6,8.8-2.7,13.4l14,67.4v5c0,2.7,2.2,4.9,4.9,4.9h70.7c2.5,0,4.6-1.9,4.9-4.4l2.8-31.1c1.4-15,4.9-29.6,10.5-43.2   c0.9-2.2,1.8-4.4,2.7-6.5c1.9-4.5,3.6-8.7,4.9-12.3C121.8,132.9,119.2,125,112.8,120.9z M110.1,136.7c-1.2,3.4-3,7.5-4.8,11.9   c-0.9,2.1-1.8,4.3-2.7,6.6c-6,14.6-9.7,30.1-11.2,46.1L89,227.9H27.6v-0.6c0-0.3,0-0.7-0.1-1l-14.2-67.9c-0.4-2,0-4.2,1.2-5.9   L38.5,117v28.3c0,7.5,3.1,14.7,8.4,19.6c4.2,3.9,9.1,5.7,14.2,5.4c7.3-0.4,14.9-5.2,22.7-14.4l20.2-26.2c0.8-1.1,2.3-1.3,3.4-0.6   C110,130.7,111.1,133.8,110.1,136.7z"/><path d="M219.8,69L219.8,69c-4.9,0-9.6,1.1-13.9,3.1l0-48.9c0-1.3-0.5-2.5-1.4-3.5c-0.9-0.9-2.2-1.4-3.5-1.4l-58.3,0   c-1.9,0-3.7,1.2-4.5,2.9c-0.8,1.8-0.4,3.9,0.9,5.3c4,4.3,6.2,9.8,6.2,15.7c0,12.7-10.3,23-23,23c0,0,0,0,0,0c-12.7,0-23-10.3-23-23   c0-5.8,2.2-11.4,6.2-15.7c1.3-1.4,1.7-3.5,0.9-5.3s-2.5-2.9-4.5-2.9l-58.7,0c-1.3,0-2.5,0.5-3.5,1.4s-1.4,2.2-1.4,3.5l0,57.8   c0,2.7,2.2,4.9,4.9,4.9c2.7,0,4.9-2.2,4.9-4.9l0-53l44.7,0c-2.1,4.4-3.2,9.2-3.2,14.1c0,18.1,14.7,32.7,32.8,32.7c0,0,0,0,0,0   c18.1,0,32.7-14.7,32.7-32.8c0-5-1.1-9.8-3.2-14.1l44.3,0l0,53c0,1.9,1.1,3.7,2.9,4.5c1.8,0.8,3.8,0.4,5.3-0.9   c4.2-3.9,9.7-6,15.5-6h0c12.7,0,23,10.3,23,23c0,6.1-2.4,11.9-6.7,16.3c-4.3,4.3-10.1,6.7-16.3,6.7h0c-5.7,0-11.2-2.1-15.5-6   c-1.4-1.3-3.5-1.6-5.3-0.9c-1.8,0.8-2.9,2.5-2.9,4.5l0,53.8l-76.5,0c-2.7,0-4.9,2.2-4.9,4.9c0,2.7,2.2,4.9,4.9,4.9l81.4,0   c1.3,0,2.5-0.5,3.5-1.4c0.9-0.9,1.4-2.2,1.4-3.5l0-49.6c4.3,2,9,3.1,13.9,3.1h0c8.7,0,17-3.4,23.2-9.6c6.2-6.2,9.6-14.4,9.6-23.2   C252.6,83.7,237.9,69,219.8,69z"/></g></svg>